<?xml version="1.0" encoding="UTF-8" standalone="no"?>
<!-- Created with Inkscape (http://www.inkscape.org/) -->

<svg
   xmlns:dc="http://purl.org/dc/elements/1.1/"
   xmlns:cc="http://creativecommons.org/ns#"
   xmlns:rdf="http://www.w3.org/1999/02/22-rdf-syntax-ns#"
   xmlns:svg="http://www.w3.org/2000/svg"
   xmlns="http://www.w3.org/2000/svg"
   xmlns:xlink="http://www.w3.org/1999/xlink"
   xmlns:sodipodi="http://sodipodi.sourceforge.net/DTD/sodipodi-0.dtd"
   xmlns:inkscape="http://www.inkscape.org/namespaces/inkscape"
   version="1.1"
   id="svg901"
   width="409.60001"
   height="409.60001"
   viewBox="0 0 409.60001 409.60001"
   sodipodi:docname="mode_copy.svg"
   inkscape:version="0.92.4 (f8dce91, 2019-08-02)">
  <metadata
     id="metadata907">
    <rdf:RDF>
      <cc:Work
         rdf:about="">
        <dc:format>image/svg+xml</dc:format>
        <dc:type
           rdf:resource="http://purl.org/dc/dcmitype/StillImage" />
        <dc:title></dc:title>
      </cc:Work>
    </rdf:RDF>
  </metadata>
  <defs
     id="defs905" />
  <sodipodi:namedview
     pagecolor="#ffffff"
     bordercolor="#666666"
     borderopacity="1"
     objecttolerance="10"
     gridtolerance="10"
     guidetolerance="10"
     inkscape:pageopacity="0"
     inkscape:pageshadow="2"
     inkscape:window-width="1837"
     inkscape:window-height="1018"
     id="namedview903"
     showgrid="false"
     inkscape:zoom="2.0068359"
     inkscape:cx="204.8"
     inkscape:cy="204.8"
     inkscape:window-x="83"
     inkscape:window-y="34"
     inkscape:window-maximized="1"
     inkscape:current-layer="svg901" />
  <image
     width="409.60001"
     height="409.60001"
     preserveAspectRatio="none"
     xlink:href="file:///home/sebastian/TipCalculator/TipLogoArt/PNGs/ic_content_copy_48px-512.png"
     id="image909"
     x="0"
     y="0"
     sodipodi:absref="/home/sebastian/TipCalculator/TipLogoArt/PNGs/ic_content_copy_48px-512.png" />
  <g
     id="g911">
    <path
       style="fill:#f4f4f4;stroke-width:0.80000001"
       d="m 127.28371,393.13399 c -10.13376,-2.72512 -18.12772,-9.3449 -22.85105,-18.9229 -3.08343,-6.25259 -4.74381,-15.82993 -2.93786,-16.94607 1.20283,-0.74339 1.30738,-236.12203 0.1052,-236.86502 -2.199374,-1.35929 0.31531,-13.10217 4.23984,-19.79888 4.79578,-8.183366 15.12379,-14.92739 25.36016,-16.55979 3.37834,-0.538744 38.41031,-0.826496 100.00001,-0.821392 102.81138,0.0085 100.81557,-0.07136 109.61109,4.38568 5.16888,2.619272 11.44797,8.386432 14.14907,12.995502 3.92453,6.69671 6.43921,18.43959 4.23984,19.79888 -1.20218,0.74299 -1.09763,236.12163 0.1052,236.86502 1.80388,1.11487 0.14584,10.69293 -2.93115,16.9325 -4.76608,9.66475 -12.85627,16.28143 -23.20202,18.97616 -6.88658,1.79373 -199.20838,1.75666 -205.88833,-0.0397 z M 322.40001,240.00001 V 121.6 h -92 H 138.4 v 118.40001 118.4 h 92.00001 92 z m -289.440009,51.04 C 31.700263,289.78027 31.57335,53.595783 32.828114,45.600001 34.502778,34.928483 42.001763,24.261101 51.053465,19.674256 60.271848,15.002948 55.07996,15.2 168.93994,15.2 c 103.29575,0 104.61433,0.01973 105.44822,1.57786 0.53558,1.000749 0.76533,7.595473 0.62814,18.030393 L 274.80001,51.260784 172.6,51.215759 70.400002,51.170734 V 170.03796 c 0,80.40832 -0.267943,119.36789 -0.828148,120.41464 -0.779822,1.45711 -1.844176,1.54741 -18.24,1.54741 -12.475886,0 -17.683997,-0.27215 -18.371853,-0.96 z"
       id="path925"
       inkscape:connector-curvature="0" />
    <path
       style="fill:#eaeaea;stroke-width:0.80000001"
       d="m 131.2,393.60105 c -15.84702,-2.78253 -27.96688,-15.30538 -30.05622,-31.05566 -0.47017,-3.54431 -0.33893,-4.09168 1.17534,-4.90209 2.00583,-1.0735 2.14512,-0.80624 2.77086,5.31651 0.98786,9.66623 8.06722,19.15243 17.93124,24.0275 l 6.0958,3.0127 h 101.28299 101.28298 l 6.0958,-3.0127 c 9.86402,-4.87507 16.94338,-14.36127 17.93124,-24.0275 0.62574,-6.12275 0.76503,-6.39001 2.77086,-5.31651 1.51427,0.81041 1.64551,1.35778 1.17534,4.90209 -1.77481,13.37919 -10.94329,24.675 -24.05622,29.63793 l -4.8,1.81669 -98,0.11658 C 178.9,394.18075 133.18,393.94871 131.2,393.60105 Z M 134.59741,238.65599 134.8,118 h 95.60001 95.6 l 0.20259,120.65599 0.20259,120.65598 -1.80259,-0.25598 -1.80259,-0.25598 -0.20263,-119 L 322.39476,120.8 h -91.99475 -91.99476 l -0.20262,119.00001 -0.20263,119 -1.80259,0.25598 -1.80259,0.25598 z M 34.195145,291.13321 C 32.864926,290.35854 32.791074,283.81649 32.805086,167.99687 32.819302,50.501918 32.879254,45.487905 34.32559,40.840825 38.245783,28.245217 48.349381,19.138583 61.495145,16.352202 68.91322,14.779864 270.92294,14.636044 273.06393,16.201577 c 1.23021,0.899551 1.34766,2.71277 1.15291,17.800001 -0.18461,14.302227 -0.39515,16.798423 -1.41683,16.798423 -1.01884,0 -1.23275,-2.385294 -1.41692,-15.8 L 271.16618,19.2 H 167.66736 c -101.50517,0 -103.599382,0.03106 -108.719334,1.612453 -5.386931,1.663853 -11.640744,5.790708 -15.135076,9.987548 -2.879447,3.458338 -6.089136,10.143962 -6.698004,13.951616 -0.28881,1.806115 -0.747822,3.421474 -1.020027,3.589687 -0.272205,0.168213 -0.402585,54.160236 -0.289733,119.982276 l 0.205186,119.67643 H 51.202556 66.394739 L 66.59737,169.4 C 66.776422,64.601171 66.939642,50.800001 68.000002,50.800001 c 1.060398,0 1.223935,13.913663 1.40574,119.599999 0.192208,111.73324 0.116376,119.66578 -1.152904,120.60001 -1.711201,1.25949 -31.920828,1.37765 -34.057693,0.1332 z M 356.45122,119.8345 c -0.17876,-0.56897 -0.48594,-2.71554 -0.6826,-4.77014 -0.19666,-2.0546 -1.46458,-6.10126 -2.8176,-8.9926 -4.37313,-9.345182 -13.14544,-16.156502 -23.2602,-18.060566 -5.89577,-1.109856 -192.68586,-1.109856 -198.58162,0 -13.50375,2.542024 -24.71618,14.385136 -26.07394,27.540546 -0.37858,3.66805 -0.72451,4.44826 -1.97229,4.44826 -2.16887,0 -2.59226,-1.8602 -1.57559,-6.92257 2.41774,-12.03881 10.96769,-22.177036 22.43086,-26.5977 l 6.43015,-2.479728 h 99.90057 c 97.89447,0 99.99417,0.03224 104.56188,1.603728 12.38792,4.262064 20.69008,13.167456 24.05334,25.80102 0.61426,2.30739 1.12111,4.99259 1.12633,5.96711 0.011,2.05589 -3.00723,4.15599 -3.53929,2.46264 z"
       id="path923"
       inkscape:connector-curvature="0" />
    <path
       style="fill:#e3e3e3;stroke-width:0.80000001"
       d="m 127.02867,392.10661 c -8.89635,-2.3207 -17.59748,-9.3288 -21.70022,-17.47788 -2.82259,-5.60638 -4.63376,-14.17889 -3.36287,-15.91693 1.55887,-2.13189 3.0414,-0.56477 2.63248,2.7827 -0.70027,5.7326 5.42332,17.33797 11.59085,21.96685 3.81811,2.86558 10.67024,6.13866 12.85117,6.13866 1.04129,0 2.079,0.18574 2.306,0.41275 0.22702,0.22701 44.80128,0.41275 99.05393,0.41275 54.25264,0 98.8269,-0.18574 99.05392,-0.41275 0.22701,-0.22701 1.26173,-0.41275 2.29938,-0.41275 2.85093,0 12.32291,-5.0999 15.09379,-8.12681 6.23325,-6.80916 9.98486,-14.8213 9.35485,-19.9787 -0.40892,-3.34747 1.07361,-4.91459 2.63248,-2.7827 0.79513,1.08739 0.75116,2.4199 -0.22178,6.72222 -2.2429,9.91805 -6.97309,16.80321 -15.41852,22.44285 -8.96463,5.98634 -3.82354,5.72886 -113.35205,5.67702 -90.1653,-0.0426 -97.8432,-0.15075 -102.81341,-1.44728 z m 8.2994,-33.89854 C 134.63236,357.51236 134.4,327.69321 134.4,239.10544 c 0,-64.99602 0.21852,-118.74402 0.4856,-119.44001 0.43902,-1.14408 9.59854,-1.26543 95.51441,-1.26543 85.91586,0 95.07538,0.12135 95.51441,1.26543 0.26708,0.69599 0.48559,54.47191 0.48559,119.50205 0,97.93674 -0.18433,118.38959 -1.07361,119.12763 -0.59048,0.49006 -1.31048,0.65414 -1.6,0.36463 -0.28951,-0.28952 -0.52639,-53.53696 -0.52639,-118.32764 0,-64.79068 -0.21851,-118.37068 -0.48559,-119.06667 C 322.27552,120.1217 313.39789,120 230.40001,120 c -82.99789,0 -91.87552,0.1217 -92.31441,1.26543 -0.26708,0.69599 -0.4856,54.31474 -0.4856,119.15279 0,64.83805 -0.30236,118.07424 -0.67193,118.30264 -0.36956,0.2284 -1.08956,-0.002 -1.6,-0.51279 z M 33.848578,290.0727 c -0.972684,-1.73792 -0.418702,-240.672268 0.556614,-240.06949 0.520636,0.32177 0.794809,41.455536 0.794809,119.24401 v 118.75279 h 16 16.000001 V 170 c 0,-78.389542 0.269423,-117.999999 0.802614,-117.999999 0.534138,0 0.734839,39.939449 0.6,119.399999 l -0.202614,119.40001 -16.951424,0.21577 c -14.12817,0.17983 -17.059444,0.0228 -17.6,-0.94308 z M 101.91664,119.06512 c -1.77767,-2.87633 1.65716,-14.07254 6.1528,-20.055678 3.90977,-5.203408 8.65517,-9.04884 14.27811,-11.570264 C 127.11656,85.300682 134.4,84.062706 134.4,85.39061 c 0,1.307184 -2.27825,2.827288 -3.52204,2.35 -1.56606,-0.600952 -8.31241,2.06188 -12.66343,4.998352 -7.01259,4.732744 -12.17533,13.311858 -13.23617,21.995038 -0.56526,4.62683 -1.79971,6.37309 -3.06172,4.33112 z m 254.36755,-0.27846 c -0.25609,-0.66734 -0.28018,-2.18333 -0.0535,-3.36887 0.52743,-2.75903 -3.56289,-12.18912 -7.30284,-16.836492 -4.48413,-5.57212 -15.8464,-12.05304 -19.00574,-10.840688 -0.62834,0.24112 -1.63167,0.03232 -2.22964,-0.463912 C 326.89853,86.617802 300.78784,86.379546 230.90264,86.39353 166.17468,86.406474 135.2,86.147738 135.2,85.594106 c 0,-0.55484 32.02543,-0.750192 99.40001,-0.606336 l 99.4,0.212232 5.2,2.472928 c 6.35483,3.02212 13.51483,9.958376 16.42981,15.91639 2.52253,5.15586 4.36652,13.41611 3.38608,15.16807 -0.88426,1.58008 -2.13148,1.59345 -2.73171,0.0293 z M 272.00001,34.811739 V 19.223477 L 167.8,19.011739 63.600002,18.8 58.131639,20.566084 C 47.162737,24.108642 38.80422,33.494368 36.912357,44.393081 c -0.364534,2.100015 -1.026352,3.283995 -1.933315,3.45866 -1.847216,0.355741 -1.809781,-2.297718 0.114712,-8.131245 C 38.974043,27.95856 50.120068,18.637218 62.581321,16.732838 65.64414,16.264766 107.66283,16.050458 170.4,16.182932 L 273.20001,16.4 l 0.21591,17.000001 c 0.14176,11.162132 -0.0642,17 -0.6,17 -0.52663,0 -0.81591,-5.526774 -0.81591,-15.588262 z"
       id="path921"
       inkscape:connector-curvature="0" />
    <path
       style="fill:#d7d7d7;stroke-width:0.80000001"
       d="m 129.00093,392.38684 c -13.20326,-2.86819 -23.69404,-13.40864 -26.50072,-26.62621 -1.20355,-5.66792 -1.13461,-7.36062 0.29979,-7.36062 0.66,0 1.21431,0.27 1.2318,0.6 0.36567,6.90001 0.71033,9.26213 1.46099,10.01279 0.49896,0.49896 0.90721,1.39058 0.90721,1.98137 0,1.61026 5.84851,9.21006 9.46178,12.29504 3.95387,3.37578 11.24701,7.1108 13.88482,7.1108 1.09271,0 2.16963,0.18289 2.39316,0.40642 0.22354,0.22354 44.44064,0.40643 98.26025,0.40643 53.8196,0 98.0367,-0.18289 98.26024,-0.40643 0.22353,-0.22353 1.33642,-0.4072 2.47309,-0.40813 2.69342,-0.002 10.93231,-4.3022 14.35575,-7.49241 3.44639,-3.21159 8.91092,-10.51634 8.91092,-11.91172 0,-0.59079 0.40825,-1.48241 0.90721,-1.98137 0.75066,-0.75066 1.09532,-3.11278 1.46099,-10.01279 0.0175,-0.33 0.5718,-0.6 1.2318,-0.6 1.5327,0 1.53462,2.37912 0.006,8.24536 -3.65469,14.0313 -14.41885,23.93144 -28.40667,26.12653 -3.33589,0.52349 -39.32737,0.79539 -100.4,0.75847 -77.0237,-0.0466 -96.15446,-0.2649 -100.19907,-1.14353 z M 135.2,238.91389 c 0,-116.39327 0.1212,-122.80094 2.26971,-120.00418 0.29166,0.37966 0.35029,54.30031 0.13029,119.82367 -0.31665,94.31006 -0.60836,119.20283 -1.4,119.46667 -0.79702,0.26565 -1,-23.94618 -1,-119.28616 z m 188.45493,118.77498 c -0.24173,-0.39113 -0.44999,-54.30113 -0.46279,-119.8 -0.0187,-95.72399 0.17597,-119.08887 0.99229,-119.08887 0.81535,0 1.05552,23.61992 1.21819,119.80001 0.12643,74.76002 -0.0814,119.8 -0.5528,119.8 -0.41546,0 -0.95316,-0.32002 -1.19489,-0.71114 z M 34.148811,290.68215 c -1.988647,-1.98865 0.206741,-2.28214 17.070675,-2.28214 15.231239,0 17.588826,0.16269 17.389823,1.2 -0.19436,1.01311 -2.853043,1.23356 -17.070951,1.41548 -9.262405,0.11851 -17.087701,-0.0315 -17.389547,-0.33334 z M 101.6,117.36808 c 0,-3.42745 2.45371,-11.26718 4.82197,-15.40647 4.10677,-7.177888 13.58097,-14.458856 20.63019,-15.8544 0.74132,-0.14676 1.97784,-0.53944 2.74784,-0.872616 1.72296,-0.74552 4.08383,0.05896 3.4035,1.15976 -0.27386,0.443104 -1.28668,0.810888 -2.25071,0.817288 -2.84332,0.01888 -8.1459,2.147952 -12.85982,5.163408 -6.66865,4.26588 -12.85157,14.46151 -13.84218,22.82574 -0.30883,2.60752 -0.85247,3.99921 -1.56222,3.99921 -0.60118,0 -1.08857,-0.82022 -1.08857,-1.83192 z M 356.94932,116.6 c 0.13788,-1.43 0.61069,-2.6 1.05069,-2.6 0.44,0 0.91281,1.17 1.05069,2.6 0.18999,1.97053 -0.0644,2.6 -1.05069,2.6 -0.98631,0 -1.24068,-0.62947 -1.05069,-2.6 z m -2.16422,-8.31046 c -3.4279,-7.75108 -7.31292,-12.866266 -12.09578,-15.925826 -4.38012,-2.801928 -9.2941,-4.8026 -13.02665,-5.303648 -1.06553,-0.143032 -2.10342,-0.763736 -2.30642,-1.379328 -0.60563,-1.836592 5.85013,-0.40084 12.31543,2.738936 8.53898,4.146824 16.25729,13.184706 18.21682,21.331296 0.98332,4.08806 -1.07857,3.11709 -3.1034,-1.46143 z M 33.968268,47.005784 c -0.652824,-1.701233 2.452857,-10.763959 4.959043,-14.471038 5.07946,-7.513396 14.890743,-14.597292 20.977226,-15.145878 4.033115,-0.363512 2.440605,1.426296 -2.773529,3.117145 -2.942975,0.954353 -6.377824,2.753863 -7.79595,4.084279 -1.394282,1.308047 -3.165057,2.599043 -3.935057,2.86888 -0.77,0.269837 -1.4,1.021498 -1.4,1.670358 0,0.64886 -0.63,1.651118 -1.4,2.22724 -1.842962,1.378927 -5.571837,9.050392 -6.247013,12.852067 -0.575548,3.240707 -1.70576,4.566289 -2.38472,2.796947 z M 168.13434,18.600021 C 85.957314,18.43637 64.737055,18.18884 65.001006,17.396988 65.264059,16.607827 86.99641,16.4 169.25572,16.4 c 98.33765,0 103.93686,0.07523 104.19199,1.4 0.15903,0.8258 -0.16458,1.319216 -0.78905,1.203034 -0.58225,-0.108332 -47.61821,-0.289688 -104.52432,-0.403013 z"
       id="path919"
       inkscape:connector-curvature="0" />
    <path
       style="fill:#cecece;stroke-width:0.80000001"
       d="m 129.16711,391.94679 c -0.73627,-1.19132 0.11738,-1.83904 1.64909,-1.25126 0.70687,0.27125 1.06115,0.85572 0.7873,1.29883 -0.64846,1.04923 -1.77209,1.02729 -2.43639,-0.0476 z m 5.23289,0.0532 c 0.75753,-0.48955 36.1553,-0.7755 96.00001,-0.7755 59.8447,0 95.24247,0.28595 96,0.7755 0.77833,0.50299 -32.9553,0.7755 -96,0.7755 -63.04471,0 -96.77833,-0.27251 -96.00001,-0.7755 z m 195.20001,-0.33334 c 0,-0.69666 0.57,-1.26666 1.26666,-1.26666 0.69667,0 1.12417,0.4275 0.95,0.95 -0.49445,1.48338 -2.21666,1.72941 -2.21666,0.31666 z M 122.9584,390.04486 c -6.46441,-2.3058 -16.60561,-11.59796 -16.51395,-15.13137 0.0407,-1.56985 0.1916,-1.51666 1.8,0.63448 4.30523,5.758 7.6555,8.80456 13.2993,12.09366 6.27088,3.65456 6.62915,4.26321 1.41465,2.40323 z m 211.44161,0.73459 c 0,-0.16987 2.43,-1.73463 5.4,-3.47724 5.48062,-3.21568 8.83253,-6.29747 12.22666,-11.24141 1.05475,-1.53637 2.02402,-2.30875 2.20729,-1.75894 0.76105,2.28314 -7.78025,11.54351 -13.34546,14.46897 -2.16528,1.13823 -6.48849,2.47655 -6.48849,2.00862 z M 104.48559,371.53458 c -0.84697,-2.20719 -0.55776,-2.99037 0.71441,-1.93457 1.30958,1.08685 1.63024,3.2 0.48559,3.2 -0.39292,0 -0.93292,-0.56944 -1.2,-1.26543 z m 249.91442,-0.16995 c 0,-0.42279 0.58152,-1.25133 1.29227,-1.8412 1.11803,-0.92789 1.25286,-0.86912 1,0.43576 -0.30131,1.55489 -2.29227,2.7756 -2.29227,1.40544 z m -252.5107,-9.36462 c -0.57221,-1.49115 0.18088,-3.6 1.28559,-3.6 0.45381,0 0.8251,1.08 0.8251,2.4 0,2.51213 -1.31934,3.26222 -2.11069,1.2 z m 254.9107,-1.2 c 0,-1.67111 0.34035,-2.41988 1,-2.2 0.55,0.18333 1,1.17333 1,2.2 0,1.02666 -0.45,2.01666 -1,2.2 -0.65965,0.21988 -1,-0.52889 -1,-2.2 z M 135.8,357.13344 c -0.99326,-0.99343 -0.74176,-236.9514 0.25323,-237.56633 0.46927,-0.29003 0.91927,-0.40128 1,-0.24722 0.48649,0.92843 -0.76442,238.30244 -1.25323,237.81355 z M 323.8078,238.60001 c -0.11429,-65.45001 -0.14174,-119.12606 -0.061,-119.28012 0.0807,-0.15406 0.53073,-0.0428 1,0.24722 1.14932,0.71032 1.21016,238.0329 0.061,238.0329 -0.51846,0 -0.86402,-41.12007 -1,-119 z m -289.407799,51 c 0,-0.50794 6.133334,-0.8 16.8,-0.8 10.666667,0 16.800001,0.29206 16.800001,0.8 0,0.50793 -6.133334,0.8 -16.800001,0.8 -10.666666,0 -16.8,-0.29207 -16.8,-0.8 z M 101.99558,118.39284 c -0.69898,-1.13096 0.35966,-4.11493 1.26202,-3.55724 0.97294,0.60131 0.96399,4.3644 -0.0104,4.3644 -0.41403,0 -0.97727,-0.36322 -1.25164,-0.80716 z m 254.94288,-1.13053 c 0.14385,-1.16163 0.62155,-2.10086 1.06155,-2.08718 1.19663,0.0372 0.96542,3.4364 -0.26155,3.84539 -0.7416,0.24719 -0.98272,-0.28274 -0.8,-1.75821 z m -254.07775,-4.36408 c -1.27099,-2.0565 4.22392,-12.61851 8.79134,-16.898228 3.27574,-3.069392 3.00966,-2.109208 -0.75651,2.73004 -2.80935,3.609788 -6.09554,10.349908 -6.09554,12.502188 0,1.67602 -1.26269,2.76077 -1.93929,1.666 z m 251.65451,-6.38574 c -1.27835,-2.70308 -3.66751,-6.55392 -5.30923,-8.557432 -3.39573,-4.14404 -3.32087,-5.601736 0.11296,-2.199608 3.07502,3.046632 6.21414,7.98516 7.43581,11.69815 1.62662,4.94375 0.27494,4.37573 -2.23954,-0.94111 z M 115.2,92.865906 c 0,-0.990608 3.22231,-3.265904 4.62522,-3.265904 0.58806,0 0.84513,0.36256 0.57126,0.805688 -0.76583,1.239152 -5.19648,3.336792 -5.19648,2.460216 z m 227.36296,-0.88376 c -2.77304,-1.686392 -3.19701,-2.382144 -1.45158,-2.382144 1.37062,0 5.05333,2.896744 4.45158,3.50152 -0.24038,0.241584 -1.59038,-0.262136 -3,-1.119376 z M 124,87.693306 c 0,-0.16868 0.7205,-0.495104 1.60111,-0.725392 0.88061,-0.23028 1.39936,-0.09227 1.15278,0.306696 C 126.32329,87.971338 124,88.324562 124,87.693306 Z m 210.00001,-0.493304 c -0.62575,-1.01248 0.4333,-1.01248 2,0 1.03415,0.66832 1.01303,0.777192 -0.15279,0.787752 -0.74403,0.0067 -1.57528,-0.347752 -1.84721,-0.787752 z m -203.96584,-0.74472 c -0.25315,-0.4096 -0.0944,-0.970848 0.35279,-1.247216 0.95469,-0.59004 2.41304,0.158856 2.41304,1.239152 0,0.97344 -2.16529,0.979752 -2.76583,0.0081 z m 197.96584,-0.45528 c 0,-0.823968 0.52432,-1.216344 1.4,-1.047704 1.68627,0.324744 1.57994,1.744544 -0.15775,2.10636 -0.72478,0.15092 -1.24225,-0.290072 -1.24225,-1.058656 z M 34.139732,46.673066 c -0.26589,-0.26589 -0.07527,-1.246104 0.423599,-2.178251 0.498871,-0.932148 0.846205,-1.784814 0.771854,-1.894814 -0.497405,-0.735894 0.01176,-1.803612 0.666979,-1.398663 0.483822,0.299018 0.526722,1.032093 0.108102,1.847213 -0.381733,0.743298 -0.543704,1.76846 -0.359934,2.278137 0.377214,1.046188 -0.869011,2.087967 -1.6106,1.346378 z m 1.860269,-7.952162 c 0,-1.1544 2.649476,-5.920903 3.291153,-5.920903 1.041529,0 0.867712,1.372245 -0.511697,4.039728 -1.071059,2.071201 -2.779456,3.227467 -2.779456,1.881175 z m 4.776155,-8.276348 c 0.98232,-1.835483 2.33859,-2.796477 3.005499,-2.129568 0.557325,0.557325 -2.102508,3.685013 -3.133791,3.685013 -0.387286,0 -0.329555,-0.699951 0.128292,-1.555445 z m 4.023845,-4.003843 c 0,-1.015602 5.519733,-5.187646 6.098147,-4.609233 0.482228,0.482229 -4.478901,5.305233 -5.498147,5.34507 -0.33,0.0129 -0.6,-0.318229 -0.6,-0.735837 z m 10.84,-7.14368 c 0.418,-0.386632 2.2,-0.91444 3.96,-1.172907 l 3.200001,-0.46994 -2.400001,1.136824 c -2.684429,1.271552 -5.964639,1.620262 -4.76,0.506023 z M 66.400002,17.6 C 65.621848,17.097119 101.68975,16.820195 169,16.812251 c 68.67484,-0.0081 103.80001,0.258464 103.80001,0.787749 0,1.08337 -204.723613,1.08337 -206.400008,0 z"
       id="path917"
       inkscape:connector-curvature="0" />
    <path
       style="fill:#c5c5c5;stroke-width:0.80000001"
       d="m 183,392.20013 c 26.07001,-0.11704 68.73001,-0.11704 94.80001,0 26.07,0.11705 4.74,0.21282 -47.4,0.21282 -52.14001,0 -73.47001,-0.0958 -47.40001,-0.21282 z m -53.55,-0.74661 c 0.5775,-0.23109 1.2675,-0.20268 1.53334,0.0631 0.26583,0.26583 -0.20667,0.45491 -1.05,0.42018 -0.93196,-0.0384 -1.12152,-0.22795 -0.48334,-0.48333 z m 200.80001,0 c 0.57749,-0.23109 1.2675,-0.20268 1.53333,0.0631 0.26584,0.26583 -0.20667,0.45491 -1.05,0.42018 -0.93196,-0.0384 -1.12152,-0.22795 -0.48333,-0.48333 z m -209.89754,-2.75446 c -3.68226,-1.94213 -5.08524,-3.09905 -3.7582,-3.09905 0.50285,0 2.28485,0.78504 3.96,1.74454 3.79073,2.17125 3.79401,2.17385 3.33153,2.63633 -0.20948,0.20948 -1.79948,-0.36734 -3.53333,-1.28182 z m 216.5142,0.59929 c 0.18334,-0.16592 1.95334,-1.08114 3.93334,-2.03382 l 3.6,-1.73215 -2.4,2.02984 c -1.32,1.11641 -3.09,2.03163 -3.93334,2.03381 -0.84333,0.002 -1.38333,-0.13177 -1.2,-0.29768 z m -226.82272,-8.97168 c -2.00417,-2.46033 -3.63257,-4.89033 -3.61867,-5.4 0.0139,-0.50966 0.9225,0.15334 2.0191,1.47334 1.0966,1.32 3.06555,3.48 4.37545,4.8 1.30989,1.32 2.3813,2.67 2.3809,3 -0.002,1.57955 -1.83877,0.19987 -5.15678,-3.87334 z m 235.55606,3.80188 c 0,-0.3693 1.17,-1.78589 2.6,-3.14799 1.43,-1.36209 3.19352,-3.30993 3.91893,-4.32853 0.72541,-1.01861 1.52189,-1.65554 1.76995,-1.4154 0.58689,0.56815 -6.46808,9.56338 -7.50058,9.56338 -0.43357,0 -0.7883,-0.30215 -0.7883,-0.67146 z m -240.73685,-13.3952 c 0.0384,-0.93196 0.22795,-1.12152 0.48333,-0.48334 0.2311,0.5775 0.20268,1.2675 -0.0631,1.53334 -0.26584,0.26583 -0.45491,-0.20668 -0.42018,-1.05 z m -2.7198,-9.22833 c -0.27002,-1.03258 -0.15454,-2.21383 0.25662,-2.62499 1.08289,-1.08289 1.89661,1.53208 0.98413,3.16259 -0.65542,1.17116 -0.81159,1.10349 -1.24075,-0.5376 z m 255.03956,-0.0667 c -0.68098,-1.76731 0.30926,-3.46614 1.39028,-2.38512 0.52347,0.52347 0.51108,1.29416 -0.0365,2.2697 -0.76426,1.36158 -0.87013,1.37061 -1.35378,0.11542 z M 136.19291,238.60001 c -0.1061,-65.23001 0.0771,-118.60003 0.40709,-118.60006 0.54271,-6e-5 0.53948,80.96134 -0.008,194.40006 -0.11355,23.54 -0.29326,-10.57 -0.39936,-75.8 z m 187.61234,-0.20003 c -0.11288,-65.12002 0.0647,-118.40002 0.39476,-118.4 0.33,1e-5 0.6,53.28002 0.6,118.40003 0,65.12 -0.17764,118.4 -0.39476,118.4 -0.21712,0 -0.48712,-53.28001 -0.6,-118.40003 z M 43.000001,289.8033 c 4.51,-0.1426 11.89,-0.1426 16.4,0 4.510001,0.1426 0.82,0.25928 -8.2,0.25928 -9.02,0 -12.71,-0.11668 -8.2,-0.25928 z M 357.13682,118.12381 c -0.3021,-0.78725 -0.18927,-1.79135 0.25073,-2.23135 1.07237,-1.07237 1.89694,1.07642 0.98147,2.55767 -0.55232,0.89368 -0.788,0.83127 -1.2322,-0.32632 z m -254.94836,-0.20202 c -0.72115,-0.72115 0.27184,-2.77895 1.09537,-2.26998 0.39389,0.24344 0.71617,0.96138 0.71617,1.59541 0,1.17807 -0.95313,1.53299 -1.81154,0.67457 z m 1.0747,-6.38845 c 0.0384,-0.93196 0.22795,-1.12152 0.48333,-0.48334 0.2311,0.5775 0.20268,1.2675 -0.0631,1.53334 -0.26584,0.26583 -0.45491,-0.20667 -0.42018,-1.05 z M 104.8,106.08863 c 0,-1.16808 3.12735,-5.35535 3.17339,-4.2489 0.0356,0.85504 -2.31269,5.36027 -2.79393,5.36027 -0.20871,0 -0.37946,-0.50012 -0.37946,-1.11137 z m 249.26998,-1.16297 c -0.76337,-1.47089 -1.21017,-2.85213 -0.99288,-3.06941 0.64633,-0.64634 3.10314,3.60418 2.72708,4.71812 -0.19578,0.57992 -0.94942,-0.13657 -1.7342,-1.64871 z M 108.83667,99.131482 c 0.49113,-0.91768 1.08827,-1.473208 1.32698,-1.234496 0.65941,0.659408 -0.39684,2.903014 -1.36669,2.903014 -0.59165,0 -0.57947,-0.51157 0.0397,-1.668518 z m 241.8394,0.434016 c -0.74422,-1.939408 0.29423,-2.289528 1.28727,-0.434016 0.61918,1.156948 0.63136,1.668518 0.0397,1.668518 -0.46929,0 -1.06644,-0.55553 -1.32698,-1.234502 z M 116.98095,91.541074 c 0.75953,-0.795208 1.60036,-1.226432 1.86852,-0.958272 0.26816,0.26816 -0.35327,0.918792 -1.38095,1.445832 -1.78629,0.916096 -1.80774,0.89464 -0.48757,-0.48756 z m 225.77196,0.08437 c -0.85409,-0.646 -1.14698,-1.186 -0.65085,-1.2 0.49612,-0.014 1.3502,0.51456 1.89795,1.17456 1.26463,1.523792 0.74784,1.534336 -1.2471,0.02544 z m -14.3529,-5.22544 c -0.27194,-0.44 0.0881,-0.8 0.8,-0.8 0.71193,0 1.07193,0.36 0.8,0.8 -0.27194,0.44 -0.63194,0.8 -0.8,0.8 -0.16807,0 -0.52807,-0.36 -0.8,-0.8 z M 131.05,85.853514 c 0.5775,-0.231096 1.2675,-0.20268 1.53334,0.06312 0.26583,0.26584 -0.20667,0.454912 -1.05,0.420176 -0.93196,-0.0384 -1.12152,-0.227952 -0.48334,-0.483328 z M 36.825443,37.552905 c -0.01399,-0.685903 0.503108,-1.945903 1.149116,-2.8 0.939016,-1.241491 1.179659,-1.302817 1.2,-0.305808 0.01399,0.685903 -0.503108,1.945903 -1.149116,2.8 -0.939016,1.241491 -1.179659,1.302817 -1.2,0.305808 z m 4.124558,-7.202904 c 0.1925,-0.5775 0.8225,-1.2075 1.4,-1.4 0.6,-0.2 0.9,0.1 0.7,0.7 -0.1925,0.5775 -0.8225,1.2075 -1.4,1.4 -0.6,0.2 -0.9,-0.1 -0.7,-0.7 z m 4.8,-4.8 c 0.1925,-0.5775 0.8225,-1.2075 1.4,-1.4 0.6,-0.2 0.9,0.1 0.7,0.7 -0.1925,0.5775 -0.8225,1.2075 -1.4,1.4 -0.6,0.2 -0.9,-0.1 -0.7,-0.7 z M 118.2,17.000104 c 28.27,-0.116523 74.53,-0.116523 102.80001,0 28.27,0.116524 5.14,0.211861 -51.40001,0.211861 -56.54,0 -79.669998,-0.09534 -51.4,-0.211861 z"
       id="path915"
       inkscape:connector-curvature="0" />
    <path
       style="fill:#bbbbbb;stroke-width:0.80000001"
       d="m 112.45715,382.74287 c -1.82869,-1.82869 -1.5424,-2.449 0.34285,-0.74286 0.88,0.79639 1.6,1.57218 1.6,1.72399 0,0.59451 -0.74182,0.2199 -1.94285,-0.98113 z m 235.14286,-0.34286 c 0.79639,-0.88 1.62798,-1.6 1.84798,-1.6 0.22,0 -0.25159,0.72 -1.04798,1.6 -0.79639,0.88 -1.62799,1.6 -1.84799,1.6 -0.22,0 0.2516,-0.72 1.04799,-1.6 z m -239.61606,-5.21934 c -0.55657,-0.67063 -0.85702,-1.37425 -0.66767,-1.56361 0.18936,-0.18935 0.78371,0.35934 1.32079,1.21933 1.16144,1.85978 0.7741,2.06397 -0.65312,0.34428 z m 243.21606,0.91729 c 0,-0.16612 0.63,-0.79612 1.4,-1.4 1.26885,-0.99509 1.29714,-0.9668 0.30205,0.30205 -1.0451,1.3326 -1.70205,1.75638 -1.70205,1.09795 z M 102.4,360.75279 c 0,-0.90597 0.34428,-1.43444 0.76507,-1.17437 0.42078,0.26005 0.56226,1.0013 0.3144,1.64721 -0.63458,1.65369 -1.07947,1.45882 -1.07947,-0.47284 z m 255.26317,-0.41945 c 0.0384,-0.93196 0.22795,-1.12152 0.48333,-0.48333 0.23109,0.57749 0.20268,1.2675 -0.0631,1.53333 -0.26584,0.26584 -0.45492,-0.20667 -0.42018,-1.05 z m -255.20001,-243.2 c 0.0384,-0.93196 0.22795,-1.12152 0.48333,-0.48334 0.2311,0.5775 0.20268,1.2675 -0.0631,1.53334 -0.26584,0.26583 -0.45491,-0.20667 -0.42018,-1.05 z m 255.20001,0 c 0.0384,-0.93196 0.22795,-1.12152 0.48333,-0.48334 0.23109,0.5775 0.20268,1.2675 -0.0631,1.53334 -0.26584,0.26583 -0.45492,-0.20667 -0.42018,-1.05 z m -3.61173,-12.89883 c -0.43414,-1.14016 -0.34226,-1.23205 0.44784,-0.44784 0.54674,0.54267 0.79254,1.18819 0.54622,1.4345 -0.24631,0.24631 -0.69364,-0.19769 -0.99406,-0.98666 z m -3.25143,-5.034508 c -0.27194,-0.44 -0.11319,-0.8 0.35278,-0.8 0.46597,0 0.84722,0.36 0.84722,0.8 0,0.44 -0.15875,0.799998 -0.35279,0.799998 -0.19403,0 -0.57528,-0.359998 -0.84721,-0.799998 z M 45.600001,25.600001 c 0,-0.44 0.381247,-0.8 0.847214,-0.8 0.465967,0 0.624721,0.36 0.352786,0.8 -0.271935,0.44 -0.653181,0.8 -0.847213,0.8 -0.194033,0 -0.352787,-0.36 -0.352787,-0.8 z"
       id="path913"
       inkscape:connector-curvature="0" />
  </g>
</svg>
