<?xml version="1.0" encoding="UTF-8" standalone="no"?>
<!-- Created with Inkscape (http://www.inkscape.org/) -->

<svg
   xmlns:dc="http://purl.org/dc/elements/1.1/"
   xmlns:cc="http://creativecommons.org/ns#"
   xmlns:rdf="http://www.w3.org/1999/02/22-rdf-syntax-ns#"
   xmlns:svg="http://www.w3.org/2000/svg"
   xmlns="http://www.w3.org/2000/svg"
   xmlns:xlink="http://www.w3.org/1999/xlink"
   xmlns:sodipodi="http://sodipodi.sourceforge.net/DTD/sodipodi-0.dtd"
   xmlns:inkscape="http://www.inkscape.org/namespaces/inkscape"
   version="1.1"
   id="svg61"
   width="682.66669"
   height="682.66669"
   viewBox="0 0 682.66669 682.66669"
   sodipodi:docname="Tip_Logo_Circle.svg"
   inkscape:version="0.92.4 (f8dce91, 2019-08-02)">
  <metadata
     id="metadata67">
    <rdf:RDF>
      <cc:Work
         rdf:about="">
        <dc:format>image/svg+xml</dc:format>
        <dc:type
           rdf:resource="http://purl.org/dc/dcmitype/StillImage" />
        <dc:title></dc:title>
      </cc:Work>
    </rdf:RDF>
  </metadata>
  <defs
     id="defs65" />
  <sodipodi:namedview
     pagecolor="#ffffff"
     bordercolor="#666666"
     borderopacity="1"
     objecttolerance="10"
     gridtolerance="10"
     guidetolerance="10"
     inkscape:pageopacity="0"
     inkscape:pageshadow="2"
     inkscape:window-width="1837"
     inkscape:window-height="1018"
     id="namedview63"
     showgrid="false"
     inkscape:zoom="1.2041015"
     inkscape:cx="341.33334"
     inkscape:cy="341.33334"
     inkscape:window-x="83"
     inkscape:window-y="34"
     inkscape:window-maximized="1"
     inkscape:current-layer="svg61" />
  <image
     width="682.66669"
     height="682.66669"
     preserveAspectRatio="none"
     xlink:href="file:///home/sebastian/TipCalculator/TipLogoArt/PNGs/Tip_Logo_Circle.png"
     id="image69"
     x="0"
     y="0"
     sodipodi:absref="/home/sebastian/TipCalculator/TipLogoArt/PNGs/Tip_Logo_Circle.png" />
  <g
     id="g71">
    <path
       style="fill:#dadbdb;stroke-width:1.33333337"
       d="M 300.00001,679.94438 C 250.36617,676.44769 185.92555,651.02029 138.74823,616.31658 73.658643,568.43661 26.678902,497.99043 7.8269897,420.00001 2.5594508,398.20819 0.66666669,376.88449 0.66666669,339.33334 c 0,-37.55114 1.89278411,-58.87484 7.16032301,-80.66666 C 26.668029,180.72125 73.766061,110.07992 138.66667,62.423053 183.23431,29.696794 237.39422,7.1011204 284.8178,1.4483758 c 15.74972,-1.87731901 98.61471,-1.87731901 114.36443,0 33.21429,3.9590411 67.97763,15.5299252 104.81779,34.8883172 43.37556,22.792549 85.18141,59.0453 114.92948,99.663307 32.96072,45.00459 57.57566,104.63681 61.91688,150.00001 1.48758,15.54431 1.48758,91.12236 0,106.66667 -2.04009,21.31773 -10.87122,54.42291 -19.67613,73.7597 -2.11029,4.63449 -3.83689,8.69588 -3.83689,9.02528 0,0.32941 -3.09766,7.03754 -6.88368,14.90697 -19.84095,41.24036 -50.44861,80.61599 -86.44966,111.2143 -51.49146,43.76404 -122.48474,74.26993 -182.66667,78.49208 -19.3967,1.3608 -61.18499,1.29883 -81.33334,-0.12067 z"
       id="path85"
       inkscape:connector-curvature="0" />
    <path
       style="fill:#95a7b0;stroke-width:1.33333337"
       d="M 310.66668,680.06578 C 251.24192,675.54286 187.03081,650.92213 136.66667,613.34822 60.033903,556.17673 10.275366,467.66234 1.9936243,373.78121 c -2.48578617,-28.17865 -2.48578617,-40.71708 0,-68.89573 C 5.0947836,269.731 13.026037,238.16237 26.715226,206.48651 43.618472,167.37354 61.402581,139.31847 88.393447,109.18692 138.68467,53.043736 214.17903,12.11228 286.04577,2.0239865 c 20.15072,-2.82865774 91.75776,-2.82865774 111.90848,0 41.36374,5.8064342 87.24518,23.0198855 126.04577,47.2888885 76.33264,47.744562 129.89374,122.837055 151.30851,212.134045 5.18435,21.61812 7.30229,43.79174 7.33176,76.75925 0.0492,55.1203 -6.67105,90.60528 -25.37263,133.97401 -16.82757,39.02296 -34.64821,67.14347 -61.66108,97.2996 -50.83769,56.75323 -126.4165,97.18632 -202.62878,108.4022 -16.9236,2.49058 -62.421,3.69768 -82.31112,2.1838 z m 11.67769,-205.73243 c 1.38099,-1.7208 126.98898,-290.78405 126.98898,-292.24134 0,-0.44963 -11.14072,-0.65427 -24.75715,-0.45476 l -24.75713,0.36276 -61.23469,144.66667 c -33.67906,79.56667 -61.57878,145.71667 -61.99937,147 -0.70807,2.16051 0.90875,2.33334 21.82856,2.33334 16.47236,0 22.95561,-0.45154 23.9308,-1.66667 z m 164.04519,-0.43068 c 35.32971,-7.21007 54.30678,-30.47337 57.15791,-70.06784 1.77108,-24.59543 -6.80849,-51.20947 -20.69605,-64.19967 -22.16558,-20.73328 -64.61147,-25.6338 -95.68995,-11.0477 -16.81518,7.89188 -26.69138,19.44469 -33.31912,38.97545 -4.80226,14.15133 -5.97987,38.46392 -2.55607,52.77137 5.85431,24.46414 19.18628,41.00642 39.56196,49.08842 16.26042,6.44966 37.4964,8.16256 55.54132,4.47997 z m -28.71457,-42.7622 c -2.37876,-1.17268 -5.67876,-4.30902 -7.33333,-6.96964 -2.79716,-4.49795 -3.00732,-6.33483 -2.99419,-26.17082 0.012,-17.9453 0.39272,-22.03089 2.39807,-25.72562 6.36816,-11.73303 21.47861,-12.58636 30.61454,-1.72892 5.49207,6.52696 6.63802,12.44121 6.11327,31.55073 -0.41995,15.29296 -0.82623,17.80475 -3.60205,22.26947 -5.38596,8.66293 -15.72642,11.44328 -25.19631,6.7748 z m -175.46513,-91.6865 c 32.10348,-10.30697 47.64587,-34.48559 47.64587,-74.12063 0,-40.39651 -16.80983,-64.69823 -51.29567,-74.15745 -11.80738,-3.23868 -38.74828,-3.3292 -50.27961,-0.16895 -34.60562,9.48397 -52.28044,34.61204 -52.28044,74.3264 0,51.66211 29.08253,79.81971 80.66667,78.10121 11.17004,-0.37214 17.25969,-1.32114 25.54318,-3.98058 z M 248.00001,300.3713 c -4.6691,-1.75445 -9.57047,-6.27568 -12.03019,-11.09713 -2.21983,-4.35121 -2.63648,-7.86429 -2.63648,-22.22984 0,-19.85519 1.06887,-24.60219 6.89251,-30.61067 7.20692,-7.43564 16.11539,-7.56463 24.32983,-0.35225 7.51746,6.60042 9.11937,12.84905 8.57814,33.46132 -0.41708,15.88411 -0.80242,18.32989 -3.59586,22.82293 -4.70196,7.56276 -13.75819,10.92895 -21.53795,8.00564 z"
       id="path83"
       inkscape:connector-curvature="0" />
    <path
       style="fill:#658d9c;stroke-width:1.33333337"
       d="m 310.66668,679.23336 c -1.83334,-0.30772 -8.73334,-1.20767 -15.33334,-1.99988 -43.76485,-5.25322 -94.59483,-23.7474 -135.42457,-49.27342 C 74.032684,574.27189 16.363234,483.46086 3.4227344,381.54436 c -2.74396286,-21.61084 -2.74396286,-62.81119 0,-84.42203 C 15.091563,205.22123 64.007268,120.61062 136.66667,66.647258 181.83649,33.100114 234.05518,11.030024 289.55636,2.0288371 c 17.51862,-2.84117239 87.36868,-2.84117239 104.88731,0 55.50117,9.0011869 107.71987,31.0712769 152.88968,64.6184209 61.64711,45.784652 107.81515,115.898512 126.00053,191.352752 7.7235,32.04617 8.66024,40.8436 8.66024,81.33333 0,40.48974 -0.93674,49.28717 -8.66024,81.33334 -15.4599,64.14578 -52.62589,127.06037 -100.66719,170.40942 -50.4149,45.49082 -111.27847,74.65864 -178.78845,85.68127 -12.53905,2.04729 -74.73887,3.89807 -83.21156,2.47599 z M 323.6777,475.66668 c 2.19278,-2.73233 126.98898,-291.23651 126.98898,-293.57345 0,-1.91633 -2.8313,-2.11037 -26.09037,-1.78808 l -26.09039,0.36152 -61.28014,144.66667 c -33.70408,79.56667 -61.63841,146.31668 -62.07629,148.33334 l -0.79615,3.66667 h 24.00342 c 17.60046,0 24.36018,-0.44459 25.34094,-1.66667 z m 164.0452,-0.44152 c 15.28712,-3.1359 26.11629,-8.82429 36.37445,-19.10692 13.54982,-13.5821 19.26638,-27.94361 20.80558,-52.26909 1.72681,-27.29067 -5.65863,-49.80347 -21.24971,-64.77479 -13.94476,-13.39046 -27.30214,-18.55022 -51.67723,-19.96218 -26.29323,-1.52308 -46.68854,4.97527 -62.11896,19.79232 -15.24075,14.63491 -21.79003,32.73561 -21.83387,60.34366 -0.0385,24.27013 5.35192,40.21763 18.3336,54.23939 8.41347,9.08755 15.5588,14.30537 24.30992,17.75213 15.22224,5.99551 39.12,7.6648 57.05622,3.98548 z m -29.01086,-45.56055 c -8.5916,-4.3341 -10.0483,-8.9358 -10.02376,-31.6646 0.0243,-22.42648 1.23412,-26.62588 9.04314,-31.3873 5.41593,-3.3023 8.05534,-3.27654 15.12872,0.14762 4.49836,2.17762 6.44524,4.27934 9.22265,9.95618 3.35439,6.85612 3.49664,8.00056 3.01299,24.23968 -0.56992,19.1357 -2.18598,23.97528 -9.49383,28.43113 -5.28904,3.22492 -10.86528,3.31647 -16.88991,0.27729 z M 282.99193,340.96746 c 23.87213,-7.73546 38.86068,-23.75269 45.8226,-48.96745 1.75551,-6.35811 2.39291,-13.46136 2.39291,-26.66667 0,-27.50089 -4.81832,-41.57723 -19.44632,-56.81077 -14.85198,-15.46679 -30.20604,-21.01278 -58.42778,-21.10448 -27.76797,-0.0903 -40.8548,4.40217 -56.717,19.46972 -16.17631,15.3659 -21.94967,30.73869 -21.94967,58.44553 0,43.81127 19.28812,70.08382 57.33334,78.0943 13.63844,2.8716 38.19383,1.68689 50.99192,-2.46018 z m -34.96451,-42.4555 c -4.69389,-1.8728 -7.92729,-5.09314 -10.83596,-10.79216 -2.05664,-4.02963 -2.52341,-7.86168 -2.51735,-20.66667 0.009,-18.44576 1.31528,-24.17072 6.75856,-29.614 8.8671,-8.8671 21.03607,-5.55994 27.39946,7.44635 3.25653,6.6561 3.41115,7.92621 2.93031,24.0707 -0.56992,19.13571 -2.18598,23.97528 -9.49383,28.43114 -4.64284,2.83092 -9.08537,3.18174 -14.24119,1.12464 z"
       id="path81"
       inkscape:connector-curvature="0" />
    <path
       style="fill:#4e7b8d;stroke-width:1.33333337"
       d="M 316.66668,679.19878 C 247.23681,672.12358 190.31606,650.98093 139.33334,613.33003 52.938062,549.52686 1.3333334,447.06654 1.3333334,339.33334 1.3333334,266.80685 24.980249,194.92381 68.003325,136.66667 98.360161,95.560767 142.50591,58.058079 186.1287,36.316839 c 30.01996,-14.961705 55.881,-23.923981 91.87131,-31.838467 17.23747,-3.79062219 17.59145,-3.81170531 64,-3.81170531 46.40855,0 46.76254,0.0210831 64,3.81170531 66.96455,14.725911 117.46351,39.878783 163.95642,81.664562 52.03859,46.769976 88.00682,107.893936 103.87491,176.523746 6.99882,30.27004 8.16868,41.24969 8.16868,76.66666 0,35.41698 -1.16986,46.39663 -8.16868,76.66667 -8.30901,35.93662 -22.70157,71.2465 -41.53073,101.8891 -52.27608,85.07416 -140.13385,143.10061 -239.63393,158.26837 -16.62392,2.53413 -62.83146,4.38324 -76,3.0413 z m 7.64017,-202.86543 c 2.89509,-3.28967 127.69317,-291.48268 127.69317,-294.8786 0,-2.73504 -0.50416,-2.78808 -26.50342,-2.78808 -19.63365,0 -26.83397,0.432 -27.77875,1.66667 -2.46762,3.22479 -124.38451,293.01889 -124.38451,295.6596 0,2.57894 0.86731,2.67374 24.46002,2.67374 21.62409,0 24.6981,-0.27053 26.51349,-2.33333 z m 163.41605,0.22515 c 25.22745,-5.175 44.21282,-20.4954 52.65121,-42.48731 9.09791,-23.71078 7.66824,-58.96403 -3.2305,-79.65899 -8.44519,-16.03606 -24.66709,-28.69511 -43.14359,-33.66787 -4.4,-1.18421 -14.31082,-2.51868 -22.02403,-2.96548 -43.99084,-2.54824 -75.27424,19.27892 -83.44446,58.22116 -3.16854,15.10244 -1.99586,41.60162 2.3937,54.0905 6.96545,19.81761 21.41588,35.26471 39.74145,42.48251 15.22224,5.9955 39.12,7.6648 57.05622,3.98548 z m -28.6366,-47.84337 c -7.6814,-3.34086 -9.0891,-8.11073 -9.06468,-30.71512 0.0179,-16.49186 0.43105,-20.75613 2.3559,-24.31076 6.85795,-12.6646 23.92603,-9.45746 29.66676,5.57444 3.07454,8.05056 2.33719,36.61655 -1.11113,43.04708 -4.10008,7.64599 -12.99607,10.25383 -21.84685,6.40436 z M 283.43674,342.16828 c 33.82088,-10.90411 52.09999,-41.79038 49.41791,-83.5016 -1.48967,-23.16695 -7.84403,-39.03615 -20.83127,-52.02338 -13.02782,-13.02783 -28.81845,-19.32907 -52.27354,-20.85972 -35.39429,-2.30979 -63.53165,10.99605 -77.49146,36.64483 -12.1098,22.24969 -12.0658,62.68708 0.0944,86.79639 6.89909,13.67836 20.04593,25.45934 34.98052,31.3463 17.92613,7.06618 46.96426,7.76779 66.1034,1.59718 z m -36.74997,-45.837 c -2.64152,-1.32531 -5.94031,-4.63266 -7.64474,-7.6646 -2.64281,-4.70122 -2.99988,-7.22971 -3.01265,-21.33334 -0.0169,-18.61088 1.19811,-24.12225 6.42072,-29.12584 8.2499,-7.90391 19.14318,-4.83061 25.29576,7.1366 2.83816,5.52042 3.0442,7.34607 2.63216,23.32258 -0.49853,19.32986 -2.13904,24.42894 -9.00104,27.97742 -5.09445,2.63446 -8.98077,2.55168 -14.69021,-0.31282 z"
       id="path79"
       inkscape:connector-curvature="0" />
    <path
       style="fill:#3b758b;stroke-width:1.33333337"
       d="M 319.33334,679.15925 C 251.21365,673.48058 190.25207,650.90165 138,611.99702 83.650874,571.53103 42.327093,514.67884 19.765703,449.33335 14.15737,433.08969 7.1599074,403.36256 4.3869092,384.00001 c -3.281252,-22.91144 -3.281252,-66.42189 0,-89.33333 C 17.659787,201.98839 65.192232,120.87917 138,66.669664 160.08429,50.226668 178.47059,39.604035 205.33334,27.76804 230.76514,16.562535 241.0455,13.445939 288.66668,2.5047112 c 11.39704,-2.61853486 95.26963,-2.61853486 106.66667,0 4.4,1.0109244 16.4,3.8277867 26.66666,6.259694 77.06233,18.2540668 145.61456,63.2863848 192.67457,126.5689348 36.53135,49.12443 58.35806,104.98044 66.69099,170.66667 1.52937,12.05561 1.52937,54.61106 0,66.66667 -8.33293,65.68623 -30.15964,121.54224 -66.69099,170.66667 -46.96461,63.15427 -114.88059,107.81151 -192.67457,126.69061 -10.26666,2.49152 -25.86666,5.48212 -34.66666,6.64578 -15.92938,2.10642 -55.30357,3.54792 -68.00001,2.48951 z m 4.35395,-200.27109 c 2.37981,-1.5106 129.91009,-295.86481 129.37993,-298.62342 -0.38948,-2.02667 -3.25204,-2.30261 -27.23221,-2.62508 -20.41732,-0.27456 -27.12077,0.0429 -28.15705,1.33333 -1.92677,2.39939 -125.67795,295.30711 -125.67795,297.46823 0,0.97956 0.4,2.18102 0.88889,2.6699 1.27144,1.27146 48.77255,1.06296 50.79839,-0.22296 z m 162.70227,-0.97629 c 14.40471,-2.92681 31.14276,-11.27024 39.62386,-19.75135 23.27824,-23.27823 28.631,-69.95956 11.86284,-103.45556 -6.92919,-13.84175 -14.74164,-21.75474 -28.13974,-28.50191 -25.93946,-13.06292 -57.6413,-13.40727 -83.99295,-0.91236 -18.45884,8.75245 -28.54718,20.59415 -35.82846,42.05546 -4.87022,14.35476 -6.07607,38.5603 -2.63972,52.98813 4.77432,20.04544 15.86776,37.25074 29.72129,46.096 18.66767,11.91903 45.43926,16.34859 69.39288,11.48159 z m -27.40104,-50.3455 c -6.09274,-3.3837 -7.5792,-7.39873 -8.11828,-21.92817 -0.7947,-21.41921 0.59338,-30.64024 5.32459,-35.37147 3.49076,-3.49074 4.60871,-3.85629 9.95187,-3.25404 6.817,0.76838 11.86486,4.64326 14.69182,11.27783 1.91652,4.49789 2.58546,30.92305 0.98531,38.92376 -0.46357,2.31785 -2.50429,5.99285 -4.53495,8.16667 -3.01898,3.23184 -4.7492,3.94378 -9.49048,3.90514 -3.1891,-0.026 -7.15356,-0.79985 -8.80988,-1.71972 z M 280.66668,343.9978 c 27.5939,-8.6477 43.1468,-24.96299 50.83902,-53.33112 3.25394,-12.00018 3.24004,-38.75406 -0.0263,-50.66667 -3.52436,-12.85363 -12.01696,-28.22408 -19.42135,-35.15002 -14.26472,-13.34294 -33.70903,-19.99218 -58.72475,-20.08172 -25.52985,-0.0913 -43.44243,6.01742 -58.48699,19.94603 -24.73808,22.90309 -30.46173,70.22548 -12.75514,105.45774 9.51564,18.93404 26.30845,30.71098 51.23945,35.93467 12.52554,2.62442 35.4983,1.60094 47.33602,-2.10891 z m -34.93527,-49.27715 c -7.66726,-4.67499 -8.69258,-8.55755 -8.18374,-30.98893 l 0.45234,-19.94047 4.98041,-4.5623 c 6.35888,-5.82501 12.28184,-6.13281 18.43192,-0.95786 6.53247,5.4967 7.921,10.32081 7.921,27.51943 0,18.86929 -0.7301,22.61505 -5.3778,27.59042 -4.48009,4.79596 -11.68682,5.32575 -18.22413,1.33971 z"
       id="path77"
       inkscape:connector-curvature="0" />
    <path
       style="fill:#50616d;stroke-width:1.33333337"
       d="M 319.33334,679.15925 C 251.21365,673.48058 190.25207,650.90165 138,611.99702 83.650874,571.53103 42.327093,514.67884 19.765703,449.33335 14.15737,433.08969 7.1599074,403.36256 4.3869092,384.00001 c -3.281252,-22.91144 -3.281252,-66.42189 0,-89.33333 C 17.659787,201.98839 65.192232,120.87917 138,66.669664 160.08429,50.226668 178.47059,39.604035 205.33334,27.76804 230.76514,16.562535 241.0455,13.445939 288.66668,2.5047112 c 11.39704,-2.61853486 95.26963,-2.61853486 106.66667,0 4.4,1.0109244 16.4,3.8277867 26.66666,6.259694 77.06233,18.2540668 145.61456,63.2863848 192.67457,126.5689348 36.53135,49.12443 58.35806,104.98044 66.69099,170.66667 1.52937,12.05561 1.52937,54.61106 0,66.66667 -8.33293,65.68623 -30.15964,121.54224 -66.69099,170.66667 -46.96461,63.15427 -114.88059,107.81151 -192.67457,126.69061 -10.26666,2.49152 -25.86666,5.48212 -34.66666,6.64578 -15.92938,2.10642 -55.30357,3.54792 -68.00001,2.48951 z m 70.50757,-21.27704 c 53.82163,-8.44799 100.19489,-27.9701 144.82577,-60.96844 14.92993,-11.0386 43.38622,-38.4856 55.55071,-53.58042 35.57786,-44.14827 58.75387,-96.72127 67.66482,-153.49244 2.95632,-18.8345 2.95632,-76.8473 0,-95.68179 -8.44799,-53.82163 -27.9701,-100.1949 -60.96844,-144.82578 -11.0386,-14.92992 -38.4856,-43.38621 -53.58042,-55.550705 C 486.15024,47.700371 415.27841,22.666667 342.00001,22.666667 c -73.2784,0 -144.15023,25.033704 -201.33334,71.115968 -23.6806,19.083535 -51.719574,50.672145 -69.127094,77.878335 -7.717532,12.06172 -22.012178,40.4644 -27.411245,54.46464 -28.596741,74.15383 -28.596741,157.59498 0,231.74881 6.588976,17.08578 20.774238,44.34628 31.286929,60.1256 13.979514,20.98295 24.58776,33.67565 44.10738,52.77425 25.21071,24.66695 47.93233,40.91887 78.91203,56.44283 32.32528,16.19823 60.62637,25.15354 98.89867,31.29451 13.46484,2.16051 77.50939,1.72476 92.50757,-0.6294 z"
       id="path75"
       inkscape:connector-curvature="0" />
    <path
       style="fill:#2f4553;stroke-width:1.33333337"
       d="m 316.00001,677.86717 c -53.25024,-6.32215 -82.77616,-14.47805 -124,-34.25231 C 101.87962,600.38589 34.880431,515.9184 11.457047,416.00001 7.8707575,400.70179 4.0000001,375.02951 4.0000001,366.54215 c 0,-3.23794 -0.5288062,-5.03936 -1.3333333,-4.54214 -0.8696175,0.53746 -1.3333334,-7.34572 -1.3333334,-22.66667 0,-15.32094 0.4637159,-23.20412 1.3333334,-22.66666 0.8045271,0.49722 1.3333333,-1.3042 1.3333333,-4.54214 0,-14.56633 6.7268699,-50.12396 14.1491629,-74.7912 3.85945,-12.82649 16.492561,-42.7626 24.309333,-57.60473 C 89.163711,91.046886 174.48266,27.398044 274.25641,6.804899 c 7.47435,-1.5426944 15.15976,-2.8048989 17.07868,-2.8048989 1.91893,0 3.16992,-0.516236 2.77996,-1.1471911 C 292.91724,0.91469791 308.27062,0 342.00001,0 c 33.72939,0 49.08278,0.91469791 47.88496,2.852809 -0.38996,0.6309551 0.86103,1.1471911 2.77996,1.1471911 11.44012,0 55.89374,11.9183059 75.30674,20.1902259 71.77938,30.585352 123.03755,73.288344 161.30812,134.385204 25.26209,40.32954 44.67418,94.01167 48.83863,135.05823 0.50036,4.93184 1.34094,8.70051 1.86792,8.3748 1.31816,-0.81466 2.66436,18.04426 2.66436,37.32488 0,19.28063 -1.3462,38.13955 -2.66436,37.32489 -0.52698,-0.32571 -1.36756,3.44296 -1.86792,8.3748 -3.34001,32.92054 -18.04814,78.72352 -36.57689,113.90505 -49.49327,93.97555 -142.19666,159.50029 -248.87485,175.91008 -16.56705,2.54842 -64.67427,4.44281 -76.66667,3.01901 z m 68.93171,-18.59511 c 54.83724,-7.18372 103.53412,-27.05561 149.73496,-61.10281 16.29911,-12.01146 51.49111,-47.20346 63.50257,-63.50257 34.0472,-46.20084 53.91909,-94.89772 61.10281,-149.73496 2.73408,-20.87065 2.73408,-64.99276 0,-85.86342 C 652.08834,244.23106 632.21645,195.53418 598.16925,149.33334 586.15779,133.03423 550.96579,97.842225 534.66668,85.830776 487.21026,50.858287 436.96619,30.827754 379.33335,23.904882 c -17.14579,-2.059557 -57.52089,-2.059557 -74.66667,0 -57.63284,6.922872 -107.87691,26.953405 -155.33334,61.925894 -16.29911,12.011449 -51.491115,47.203454 -63.502564,63.502564 -24.102145,32.70575 -40.007672,64.3732 -50.896433,101.33334 -8.989673,30.51398 -12.631065,56.84434 -12.631065,91.33333 0,34.48899 3.641392,60.81935 12.631065,91.33334 10.888761,36.96013 26.794288,68.62759 50.896433,101.33333 12.011449,16.29911 47.203454,51.49111 63.502564,63.50257 45.65095,33.64196 94.57798,53.74397 148.66667,61.08075 18.96947,2.57308 67.36466,2.58537 86.93171,0.022 z"
       id="path73"
       inkscape:connector-curvature="0" />
  </g>
</svg>
