<?xml version="1.0" encoding="UTF-8" standalone="no"?>
<!-- Created with Inkscape (http://www.inkscape.org/) -->

<svg
   xmlns:dc="http://purl.org/dc/elements/1.1/"
   xmlns:cc="http://creativecommons.org/ns#"
   xmlns:rdf="http://www.w3.org/1999/02/22-rdf-syntax-ns#"
   xmlns:svg="http://www.w3.org/2000/svg"
   xmlns="http://www.w3.org/2000/svg"
   xmlns:xlink="http://www.w3.org/1999/xlink"
   xmlns:sodipodi="http://sodipodi.sourceforge.net/DTD/sodipodi-0.dtd"
   xmlns:inkscape="http://www.inkscape.org/namespaces/inkscape"
   version="1.1"
   id="svg80"
   width="682.66669"
   height="682.66669"
   viewBox="0 0 682.66669 682.66669"
   sodipodi:docname="Tip_Logo_Square.svg"
   inkscape:version="0.92.4 (f8dce91, 2019-08-02)">
  <metadata
     id="metadata86">
    <rdf:RDF>
      <cc:Work
         rdf:about="">
        <dc:format>image/svg+xml</dc:format>
        <dc:type
           rdf:resource="http://purl.org/dc/dcmitype/StillImage" />
        <dc:title></dc:title>
      </cc:Work>
    </rdf:RDF>
  </metadata>
  <defs
     id="defs84" />
  <sodipodi:namedview
     pagecolor="#ffffff"
     bordercolor="#666666"
     borderopacity="1"
     objecttolerance="10"
     gridtolerance="10"
     guidetolerance="10"
     inkscape:pageopacity="0"
     inkscape:pageshadow="2"
     inkscape:window-width="1837"
     inkscape:window-height="1018"
     id="namedview82"
     showgrid="false"
     inkscape:zoom="1.2041015"
     inkscape:cx="341.33334"
     inkscape:cy="341.33334"
     inkscape:window-x="83"
     inkscape:window-y="34"
     inkscape:window-maximized="1"
     inkscape:current-layer="svg80" />
  <image
     width="682.66669"
     height="682.66669"
     preserveAspectRatio="none"
     xlink:href="file:///home/sebastian/TipCalculator/TipLogoArt/PNGs/Tip_Logo_Square.png"
     id="image88"
     x="0"
     y="0"
     sodipodi:absref="/home/sebastian/TipCalculator/TipLogoArt/PNGs/Tip_Logo_Square.png" />
  <g
     id="g90"
     style="fill:#000000;fill-opacity:0">
    <path
       style="fill:#000000;stroke-width:1.33333337;fill-opacity:0"
       d="M 0,341.33334 V 0 H 341.33334 682.66669 V 341.33334 682.66669 H 341.33334 0 Z"
       id="path106"
       inkscape:connector-curvature="0" />
    <path
       style="fill:#000000;stroke-width:1.33333337;fill-opacity:0"
       d="M 0,341.33334 V 0 H 341.33334 682.66669 V 341.33334 682.66669 H 341.33334 0 Z m 322.34437,133.00001 c 1.38099,-1.7208 126.98898,-290.78405 126.98898,-292.24134 0,-0.44963 -11.14072,-0.65427 -24.75715,-0.45476 l -24.75713,0.36276 -61.23469,144.66667 c -33.67906,79.56667 -61.57878,145.71667 -61.99937,147 -0.70807,2.16051 0.90875,2.33334 21.82856,2.33334 16.47236,0 22.95561,-0.45154 23.9308,-1.66667 z m 164.04519,-0.43068 c 35.32971,-7.21007 54.30678,-30.47337 57.15791,-70.06784 1.77108,-24.59543 -6.80849,-51.20947 -20.69605,-64.19967 -22.16558,-20.73328 -64.61147,-25.6338 -95.68995,-11.0477 -16.81518,7.89188 -26.69138,19.44469 -33.31912,38.97545 -4.80226,14.15133 -5.97987,38.46392 -2.55607,52.77137 5.85431,24.46414 19.18628,41.00642 39.56196,49.08842 16.26042,6.44966 37.4964,8.16256 55.54132,4.47997 z m -28.71457,-42.7622 c -2.37876,-1.17268 -5.67876,-4.30902 -7.33333,-6.96964 -2.79716,-4.49795 -3.00732,-6.33483 -2.99419,-26.17082 0.012,-17.9453 0.39272,-22.03089 2.39807,-25.72562 6.36816,-11.73303 21.47861,-12.58636 30.61454,-1.72892 5.49207,6.52696 6.63802,12.44121 6.11327,31.55073 -0.41995,15.29296 -0.82623,17.80475 -3.60205,22.26947 -5.38596,8.66293 -15.72642,11.44328 -25.19631,6.7748 z m -175.46513,-91.6865 c 32.10348,-10.30697 47.64587,-34.48559 47.64587,-74.12063 0,-40.39651 -16.80983,-64.69823 -51.29567,-74.15745 -11.80738,-3.23868 -38.74828,-3.3292 -50.27961,-0.16895 -34.60562,9.48397 -52.28044,34.61204 -52.28044,74.3264 0,51.66211 29.08253,79.81971 80.66667,78.10121 11.17004,-0.37214 17.25969,-1.32114 25.54318,-3.98058 z M 248.00001,300.3713 c -4.6691,-1.75445 -9.57047,-6.27568 -12.03019,-11.09713 -2.21983,-4.35121 -2.63648,-7.86429 -2.63648,-22.22984 0,-19.85519 1.06887,-24.60219 6.89251,-30.61067 7.20692,-7.43564 16.11539,-7.56463 24.32983,-0.35225 7.51746,6.60042 9.11937,12.84905 8.57814,33.46132 -0.41708,15.88411 -0.80242,18.32989 -3.59586,22.82293 -4.70196,7.56276 -13.75819,10.92895 -21.53795,8.00564 z"
       id="path104"
       inkscape:connector-curvature="0" />
    <path
       style="fill:#000000;stroke-width:1.33333337;fill-opacity:0"
       d="M 0,341.33334 V 0 H 341.33334 682.66669 V 341.33334 682.66669 H 341.33334 0 Z m 323.6777,134.33334 c 2.19278,-2.73233 126.98898,-291.23651 126.98898,-293.57345 0,-1.91633 -2.8313,-2.11037 -26.09037,-1.78808 l -26.09039,0.36152 -61.28014,144.66667 c -33.70408,79.56667 -61.63841,146.31668 -62.07629,148.33334 l -0.79615,3.66667 h 24.00342 c 17.60046,0 24.36018,-0.44459 25.34094,-1.66667 z m 163.74141,-0.39338 c 12.32935,-2.5467 19.62755,-5.62106 29.89383,-12.59275 22.50163,-15.28057 32.95653,-51.25842 25.45644,-87.60168 -5.70675,-27.65324 -22.53348,-45.94009 -48.76936,-53.00121 -12.87787,-3.46594 -34.09684,-4.16173 -47.35736,-1.55286 -23.70398,4.66349 -40.48042,16.62869 -49.76429,35.49261 -6.32357,12.84887 -8.82637,25.06743 -8.85521,43.23075 -0.0669,42.13819 20.10692,68.66207 57.97686,76.22606 11.43517,2.28401 29.82056,2.19482 41.41909,-0.20092 z m -28.70707,-45.60869 c -8.58352,-4.33004 -10.04536,-8.93801 -10.04536,-31.6646 0,-22.46414 1.34786,-26.85621 9.7471,-31.76164 8.50442,-4.96685 20.48302,1.2925 24.97309,13.04955 3.08968,8.0902 2.32063,36.60455 -1.16255,43.10439 -4.70182,8.77393 -14.51737,11.80986 -23.51228,7.2723 z M 283.25633,340.8835 c 27.17867,-8.8025 42.60465,-28.18536 47.54372,-59.73898 1.83117,-11.69852 0.79119,-31.8313 -2.22868,-43.14451 -6.44191,-24.13307 -23.77163,-41.46279 -47.90469,-47.9047 -11.78672,-3.14625 -31.95568,-4.12366 -44.25018,-2.14441 -40.91749,6.58721 -61.74983,32.69347 -61.74983,77.38244 0,44.0598 19.07231,70.03838 57.33334,78.0943 13.77613,2.9006 38.18612,1.68899 51.25632,-2.54414 z m -35.22891,-42.37154 c -4.69389,-1.8728 -7.92729,-5.09314 -10.83596,-10.79216 -2.05524,-4.02688 -2.52479,-7.87202 -2.52479,-20.67547 0,-18.50199 1.13935,-23.34158 6.89251,-29.27734 7.57211,-7.81242 16.47742,-6.9878 24.24648,2.24522 5.32994,6.33427 6.54612,12.47964 5.95815,30.10659 -0.59636,17.87842 -2.3488,22.9111 -9.4952,27.26852 -4.64284,2.83092 -9.08537,3.18174 -14.24119,1.12464 z"
       id="path102"
       inkscape:connector-curvature="0" />
    <path
       style="fill:#000000;stroke-width:1.33333337;fill-opacity:0"
       d="M 0,341.33334 V 0 H 341.33334 682.66669 V 341.33334 682.66669 H 341.33334 0 Z m 388.23149,-10 c 35.02747,-80.66666 63.70481,-148.01667 63.72742,-149.66667 l 0.0411,-3 H 425.4966 c -19.63365,0 -26.83397,0.432 -27.77875,1.66667 -2.48489,3.24737 -124.38451,293.02862 -124.38451,295.6884 0,2.63324 0.65651,2.69324 25.60592,2.3404 l 25.60594,-0.36212 z m 99.49141,145.236 c 36.23304,-7.39442 55.92869,-31.87211 58.51336,-72.72019 2.2318,-35.27155 -11.556,-64.38739 -36.4388,-76.94819 -24.18743,-12.20978 -59.20574,-12.60316 -84.04517,-0.94415 -17.01532,7.98657 -27.91634,20.67879 -34.58924,40.27276 -4.80889,14.1206 -6.03248,40.85711 -2.5381,55.46 5.8745,24.54939 20.18392,42.18677 40.88996,50.39979 16.32049,6.4735 39.64368,8.26856 58.20799,4.47998 z m -28.458,-47.97127 c -7.96402,-3.93046 -9.26743,-8.24511 -9.24328,-30.59806 0.0179,-16.49186 0.43105,-20.75613 2.3559,-24.31076 6.85795,-12.6646 23.92603,-9.45746 29.66676,5.57444 1.77164,4.63896 2.13758,9.26812 1.76247,22.29543 -0.40823,14.17759 -0.88188,17.09769 -3.44065,21.21195 -4.78764,7.69808 -12.81716,9.9154 -21.1012,5.827 z M 283.5432,342.13465 c 24.65905,-7.94869 39.31704,-23.71636 46.60629,-50.13464 3.32377,-12.04628 3.33784,-41.24152 0.0256,-53.22672 -7.26003,-26.27059 -24.06015,-43.09738 -50.17508,-50.25475 -12.03437,-3.29829 -41.36158,-3.40117 -53.0529,-0.18612 -13.21701,3.63461 -22.49965,8.67361 -31.5165,17.10844 -15.34838,14.35765 -22.09727,32.64987 -22.09727,59.89248 0,53.99015 29.28337,82.37623 83.33334,80.77986 12.72141,-0.37573 18.22872,-1.19097 26.87652,-3.97855 z m -36.89732,-45.94011 c -2.55523,-1.35968 -5.98601,-4.80968 -7.62394,-7.66666 -2.62489,-4.57852 -2.97979,-7.09196 -2.99256,-21.19454 -0.0169,-18.61088 1.19811,-24.12225 6.42072,-29.12584 8.2499,-7.90391 19.14318,-4.83061 25.29576,7.1366 2.83178,5.508 3.04606,7.382 2.66667,23.32258 -0.36111,15.17314 -0.78232,17.92793 -3.37977,22.10438 -4.928,7.92376 -12.1017,9.83216 -20.38688,5.42348 z"
       id="path100"
       inkscape:connector-curvature="0" />
    <path
       style="fill:#000000;stroke-width:1.33333337;fill-opacity:0"
       d="M 0,341.33334 V 0 H 341.33334 682.66669 V 341.33334 682.66669 H 341.33334 0 Z m 325.07692,136.97565 c 1.40062,-1.68765 124.29735,-284.00966 127.59176,-293.10761 0.9557,-2.63925 1.30307,-5.50175 0.77196,-6.36111 -0.70004,-1.13268 -8.60298,-1.46314 -28.72995,-1.20137 l -27.76428,0.36111 -61.78249,146 c -33.98038,80.3 -62.30152,147.50001 -62.9359,149.33334 -2.26505,6.54607 -1.79977,6.66667 25.71984,6.66667 19.15151,0 26.08427,-0.43214 27.12906,-1.69103 z m 162.64598,-0.40632 c 29.35249,-5.99024 49.62065,-24.93297 56.96089,-53.23599 3.48407,-13.43409 4.01994,-31.84056 1.35746,-46.62764 -5.49854,-30.53828 -23.60978,-50.912 -52.12517,-58.63672 -12.80944,-3.47004 -34.0295,-4.15348 -47.27342,-1.52256 -28.91046,5.7431 -47.76841,21.79188 -56.81294,48.34981 -4.80889,14.1206 -6.03248,40.85711 -2.53811,55.46 5.89718,24.64413 21.20084,43.39459 42.2233,51.73313 16.32049,6.47349 39.64368,8.26856 58.20799,4.47997 z m -27.59435,-50.25564 c -1.76264,-0.90586 -4.46264,-3.342 -6,-5.41367 -2.53995,-3.42268 -2.7952,-5.55344 -2.7952,-23.33333 0,-22.00219 1.28984,-27.10814 7.68312,-30.41423 8.08331,-4.18004 17.82748,0.65231 21.68548,10.75432 3.24196,8.48897 2.40335,36.87668 -1.26969,42.97961 -4.06547,6.75498 -12.2453,9.05475 -19.30371,5.4273 z M 283.5432,343.46799 c 24.93278,-8.03693 40.69509,-24.95314 47.95721,-51.46798 3.30485,-12.06645 3.30929,-41.28123 0.008,-53.22672 -7.32196,-26.49475 -25.16873,-44.36911 -51.5084,-51.58808 -12.03437,-3.2983 -41.36158,-3.40118 -53.0529,-0.18612 -13.49838,3.712 -22.65136,8.76908 -32.2357,17.81046 -16.03974,15.13107 -22.7114,32.91046 -22.7114,60.52379 0,44.93538 20.40229,72.39547 60,80.75593 13.87488,2.92945 38.15371,1.69474 51.54319,-2.62128 z m -36.62004,-48.36877 c -7.49279,-3.69254 -9.59099,-9.83366 -9.58238,-28.04609 0.008,-17.78833 1.27657,-23.95602 5.79933,-28.20494 7.65498,-7.19146 18.84986,-3.7312 23.74723,7.34015 2.35763,5.3298 2.64516,8.28574 2.23374,22.96443 -0.38232,13.64052 -0.95658,17.65043 -3.01699,21.06696 -4.28637,7.10753 -11.12812,8.84803 -19.18093,4.87949 z"
       id="path98"
       inkscape:connector-curvature="0" />
    <path
       style="fill:#000000;stroke-width:1.33333337;fill-opacity:0"
       d="M 0,341.33334 V 0 H 341.33334 682.66669 V 341.33334 682.66669 H 341.33334 0 Z m 221.33334,297.33335 c 0,-0.73333 -0.7178,-1.33333 -1.59512,-1.33333 -3.80855,0 -40.39208,-19.25425 -54.40488,-28.63378 C 115.60929,575.41657 78.466255,533.15516 52.220852,480.00002 l -8.887517,-18 -0.346187,65.28465 -0.346185,65.28466 4.554361,9.59018 c 7.37503,15.52972 18.92164,25.87126 38.804679,34.75482 6.595183,2.94667 7.356486,2.97917 71.000007,3.03215 42.03569,0.035 64.33333,-0.40859 64.33333,-1.27979 z m 150.10177,-0.084 c 44.1325,-4.29451 88.69323,-19.21815 127.07301,-42.55747 37.32276,-22.69653 74.82059,-60.19436 97.51713,-97.51712 C 660.05414,393.21736 653.60512,259.59106 579.77482,161.79286 523.88975,87.76554 435.54532,44.000002 342.00001,44.000002 c -80.24905,0 -153.34338,30.125347 -210.15571,86.614308 C 97.656767,164.60723 74.303395,202.08826 59.535323,246.66668 34.348724,322.69412 39.789763,403.54069 74.859011,474.3562 130.02997,585.76322 247.24122,650.66796 371.43511,638.58272 Z m 224.67175,-1.61699 c 19.63627,-8.24495 31.19868,-18.44188 39.10671,-34.48837 l 4.83491,-9.81067 -0.35756,-64 -0.35756,-64 -9.7049,19.18349 c -32.00613,63.26594 -82.90396,113.85839 -145.14348,144.27264 -10.3666,5.06579 -19.5166,9.21054 -20.33334,9.21054 -0.81673,0 -1.48496,0.6 -1.48496,1.33333 0,0.87011 21.92451,1.33334 63.10684,1.33334 62.64955,0 63.15921,-0.022 70.33334,-3.0343 z M 45.333335,214.53573 c 0,-2.16619 16.057482,-33.7544 22.639194,-44.53572 23.556377,-38.58707 64.734031,-79.80618 104.304091,-104.409106 4.91881,-3.058299 16.31881,-9.317374 25.33333,-13.909056 l 16.39006,-8.348513 -17.33334,-0.379152 c -9.53333,-0.208535 -37.43333,-0.208535 -62,0 L 90.000003,43.333335 79.635248,48.452332 C 65.659117,55.354934 53.493302,67.333378 47.270108,80.319004 l -4.60344,9.605767 v 63.037619 c 0,41.13619 0.463245,63.03762 1.333334,63.03762 0.733333,0 1.333333,-0.65892 1.333333,-1.46428 z M 640.00002,151.51249 V 89.691622 l -4.88705,-9.768651 C 629.2061,68.115836 616.54899,55.047311 606.35051,50.225607 589.37529,42.19994 593.72477,42.60876 529.32659,42.985897 l -59.32657,0.347438 17.48426,8.918137 c 61.99777,31.622991 111.46454,81.228798 140.92211,141.318228 5.2765,10.76333 10.04363,19.61333 10.59363,19.66667 0.55,0.0533 1,-27.72242 1,-61.72388 z"
       id="path96"
       inkscape:connector-curvature="0" />
    <path
       style="fill:#000000;stroke-width:1.33333337;fill-opacity:0"
       d="M 0,341.33334 V 0 H 341.33334 682.66669 V 341.33334 682.66669 H 341.33334 0 Z m 226.66667,298.65588 c 0,-0.73926 -2.55,-2.3494 -5.66666,-3.57806 -12.125,-4.77999 -42.27419,-20.62625 -54.33334,-28.55733 C 117.3338,575.40854 80.137373,533.02994 54.184997,479.70132 48.216583,467.43704 42.883335,457.38704 42.333335,457.36799 c -0.55,-0.019 -1,30.66057 -1,68.17696 v 68.21159 l 5,10.00552 c 8.470354,16.95007 22.044103,28.15695 44.333335,36.60292 3.744351,1.41883 136,1.05343 136,-0.37576 z M 377.58773,639.3559 C 506.16052,624.31594 610.48233,527.9111 635.87861,400.66668 655.30162,303.35045 624.42467,200.63786 554.72943,130.72274 530.10808,106.02373 505.11434,88.254747 473.18763,72.751656 430.45263,52.000232 389.75299,42.666668 342.00001,42.666668 c -47.66601,0 -88.46039,9.338054 -130.97419,29.980702 C 148.85049,102.8367 102.8367,148.85049 72.64737,211.02582 52.004722,253.53962 42.666668,294.334 42.666668,342.00001 c 0,47.70158 9.336227,88.45723 30.023272,131.06131 41.23781,84.92751 117.80475,144.08457 210.78623,162.8574 27.47365,5.54689 64.51207,6.89962 94.11156,3.43718 z m 219.32954,-1.29098 c 17.11966,-6.95634 26.38672,-13.97486 34.37463,-26.03402 10.60854,-16.01545 10.04146,-11.22309 10.04146,-84.86038 0,-36.21045 -0.51004,-65.83717 -1.13342,-65.83717 -0.62337,0 -5.66545,9.15 -11.20463,20.33333 -25.65968,51.80579 -61.5722,92.55231 -110.32863,125.17938 -13.00712,8.70417 -42.54632,24.39272 -55.66666,29.5651 -3.11667,1.22866 -5.66667,2.8388 -5.66667,3.57806 0,0.88512 22.46008,1.34414 65.77012,1.34414 h 65.77012 z M 45.632122,217.04937 c 0.82137,-2.35619 4.929964,-11.2667 9.130207,-19.80114 C 86.002812,133.77092 138.32986,81.915273 202.33334,51.006594 c 8.25,-3.984106 15,-7.79045 15,-8.458543 0,-0.713367 -25.66143,-1.214716 -62.17481,-1.214716 H 92.983717 L 80.528325,46.795844 C 64.647344,53.760702 53.782042,63.957872 46.333335,78.888113 l -5,10.022035 v 66.211592 c 0,65.90507 0.483608,72.87185 4.298787,61.92763 z M 641.33336,153.41749 c 0,-71.370555 0.56138,-66.775243 -10.12905,-82.913454 -7.21558,-10.89261 -16.97537,-18.58202 -31.1994,-24.580956 l -10.8827,-4.589745 h -61.22777 c -33.67526,0 -61.22776,0.5177 -61.22776,1.150444 0,0.632745 7.95,5.086843 17.66667,9.897996 31.1912,15.444149 55.21675,32.541576 80.7925,57.494785 29.78416,29.05919 51.18274,59.02601 67.54032,94.58421 3.56019,7.73917 6.96675,13.76612 7.57013,13.39321 0.60338,-0.37291 1.09706,-29.36933 1.09706,-64.43649 z"
       id="path94"
       inkscape:connector-curvature="0" />
    <path
       style="fill:#000000;stroke-width:1.33333337;fill-opacity:0"
       d="M 0,341.33334 V 0 H 341.33334 682.66669 V 341.33334 682.66669 H 341.33334 0 Z m 231.23997,300.1511 c 1.01418,-1.64098 -1.86768,-3.78376 -8.02174,-5.96451 -9.51141,-3.37044 -34.09046,-15.59656 -46.41088,-23.08571 C 119.99879,577.90235 75.125803,526.41854 49.354082,466.20418 c -2.991623,-6.98978 -6.120231,-12.39114 -7.322443,-12.64175 -1.892868,-0.39461 -2.06301,6.61268 -1.732019,71.33333 l 0.367048,71.77093 4,7.89124 c 4.726387,9.32425 19.217934,24.5923 27.483342,28.95598 18.48768,9.76049 11.456153,9.03974 88.7713,9.09923 39.0913,0.0301 69.9082,-0.46457 70.31866,-1.1287 z m 160.09338,-2.09247 c 63.65571,-11.7962 115.64691,-38.03082 159.68392,-80.57606 47.0641,-45.4698 75.79196,-100.03832 88.52298,-168.14923 3.44133,-18.41119 3.45661,-79.15911 0.0244,-97.33334 C 626.57925,224.57161 598.19115,170.75998 550.69307,124.8709 504.17566,79.929265 447.32388,52.513715 381.33335,43.200789 364.81092,40.869059 321.6671,40.564837 306.00001,42.669591 237.66171,51.85031 179.67879,79.615763 132.18376,125.9025 82.742808,174.08565 53.011922,233.14589 43.200789,302.66668 c -2.607493,18.47646 -2.60077,60.26603 0.01267,78.66667 9.940791,69.9912 39.989679,129.41096 89.730381,177.4361 46.9562,45.33668 105.42382,73.32612 172.38952,82.52579 14.23461,1.95552 72.08568,0.67522 86,-1.90327 z m 205.55612,0.58533 c 10.51598,-4.3889 16.70384,-8.05065 24.03219,-14.22135 7.89209,-6.64538 18.06799,-21.20364 20.33275,-29.08926 2.07449,-7.22314 1.41943,-139.55365 -0.69431,-140.25795 -0.79196,-0.26388 -3.76197,4.78621 -6.60002,11.22241 -13.10395,29.71747 -29.26386,55.42087 -50.10933,79.7022 -33.33194,38.82592 -75.57544,69.09055 -122.85073,88.01431 -8.68698,3.4773 -10.01286,4.5284 -8.11111,6.43014 0.48888,0.48889 31.63915,0.88889 69.22279,0.88889 65.50767,0 68.60041,-0.1112 74.77777,-2.68939 z M 47.940787,216.00001 c 1.666045,-4.03334 6.84006,-14.83334 11.497811,-24 C 74.342089,162.66925 91.430678,139.28442 116,114.59873 c 26.57739,-26.703274 47.96502,-42.126545 83.08145,-59.912587 12.32812,-6.244044 22.22812,-11.952808 22,-12.686142 -0.26919,-0.865345 -23.58018,-1.333333 -66.41478,-1.333333 h -66 L 78.666669,45.553375 C 64.843312,52.308446 51.406332,64.920548 45.333335,76.840425 l -4.666667,9.159578 -0.368803,68.612647 c -0.202841,37.73696 -0.0308,69.49348 0.382326,70.57006 1.108818,2.88954 3.548433,-0.19593 7.260596,-9.1827 z M 642.39328,156.55577 c 0.27866,-46.21845 -0.0531,-66.776418 -1.13868,-70.555767 -2.307,-8.031722 -12.37387,-22.309069 -20.95589,-29.720713 -6.81053,-5.88175 -13.6236,-9.697187 -26.29869,-14.727741 -5.12305,-2.033262 -132.09656,-1.616286 -131.82603,0.432911 0.0957,0.724787 9.69568,6.124787 21.33333,12.000001 29.1661,14.724372 44.45198,24.831887 67.82603,44.848772 21.755,18.630367 39.1032,38.343157 55.58979,63.166777 9.88996,14.89116 26.63484,46.24046 30.15407,56.45358 0.89179,2.5881 2.24423,4.21714 3.22871,3.8891 1.33192,-0.44382 1.77818,-14.50871 2.08736,-65.78692 z"
       id="path92"
       inkscape:connector-curvature="0" />
  </g>
</svg>
